<?xml version="1.0" standalone="no"?>
<!DOCTYPE svg PUBLIC "-//W3C//DTD SVG 1.1//EN" "http://www.w3.org/Graphics/SVG/1.1/DTD/svg11.dtd" >
<svg xmlns="http://www.w3.org/2000/svg">
<metadata></metadata>
<defs>
<font id="napoleodoniregular" horiz-adv-x="1005" >
<font-face units-per-em="2048" ascent="1638" descent="-410" />
<missing-glyph horiz-adv-x="499" />
<glyph horiz-adv-x="0" />
<glyph horiz-adv-x="682" />
<glyph horiz-adv-x="442" d="M10 1466q12 -76 47 -127t80 -76.5t94 -25.5t94.5 25.5t78.5 76.5t45 127h-33q-16 -72 -69.5 -106.5t-115.5 -34.5q-61 0 -115.5 35t-72.5 106h-33z" />
<glyph horiz-adv-x="528" d="M172 1282h135v135h-135v-135z" />
<glyph horiz-adv-x="471" d="M78 1372q0 -68 49 -117q47 -47 115 -47t116 49q48 47 48 115t-50 117q-47 47 -114 47q-68 0 -117 -49q-47 -47 -47 -115zM152 1372q0 37 26.5 63.5t63.5 26.5q39 0 65 -26q25 -29 25 -64q0 -37 -27 -63q-25 -27 -63 -27q-37 0 -63.5 26.5t-26.5 63.5z" />
<glyph unicode="&#xa;" horiz-adv-x="415" d="M-23 1217h105l190 274h-157zM303 1217h105l190 274h-158z" />
<glyph horiz-adv-x="475" d="M94 -242q0 -82 49 -120q45 -37 127 -37l125 16l-18 76q-25 -14 -39 -15q-10 -2 -19.5 -3t-19.5 -1q-37 0 -63.5 20.5t-26.5 61.5q0 70 61 142q29 35 54.5 62.5t46.5 49.5h-109q-41 -37 -104 -110q-63 -72 -64 -142zM582 -242q0 -49 32.5 -81.5t85.5 -41.5q49 -6 72.5 3.5 t52.5 13.5l-22 41q-20 -12 -49 -15.5t-55.5 4t-45 26t-18.5 48.5q0 37 23.5 79t52 79t51.5 62l24 24h-51q-25 -23 -51.5 -50.5t-49 -59t-37.5 -65.5t-15 -67z" />
<glyph horiz-adv-x="432" d="M-6 1491l168 -274h123l170 274h-123l-109 -201l-106 201h-123z" />
<glyph unicode="&#xd;" horiz-adv-x="530" d="M31 0h450v35h-166v1073h-284v-35h174v-1038h-174v-35z" />
<glyph horiz-adv-x="276" d="M-266 -55h69l865 1577h-70z" />
<glyph horiz-adv-x="993" d="M6 0h445v35h-168v1030h475v-1030h-152v-35h398v35h-136v1073h-585v27q0 72 21.5 123t44 83.5t65.5 48t86 15.5q25 0 57.5 -4t65 -11.5t59.5 -18.5t39 -25q45 -57 45 -138h49q-6 133 -78 209q-72 74 -207 74q-37 0 -74.5 -5t-73.5 -16.5t-65.5 -28t-48.5 -38.5 q-39 -43 -68.5 -107.5t-29.5 -150.5v-37h-150v-43h150v-1030h-164v-35z" />
<glyph horiz-adv-x="923" d="M6 0h445v35h-168v1030h178v43h-178v25q0 139 49 206q47 66 182 66q70 0 137 -23v-1347h-147v-35h397v35h-137v1302l2 -2v117h-2v14h-57q-8 2 -20.5 4.5t-29.5 6.5q-72 14 -151 14q-174 0 -256 -88q-80 -86 -80 -285v-10h-150v-43h150v-1030h-164v-35z" />
<glyph horiz-adv-x="1028" d="M23 1421h206v-700l-202 -160v-67l202 159v-608h-204v-45h927v471h-59v-385h-553v655l352 279v67l-352 -278v612h254v45h-571v-45z" />
<glyph horiz-adv-x="491" d="M33 0h444v45h-160v811l160 139v62l-160 -139v548h-284v-45h174v-600l-168 -147v-62l168 148v-715h-174v-45z" />
<glyph horiz-adv-x="1073" d="M66 0h919v455h-37v-369h-784l803 1257v123h-877v-432h37v346h741l-802 -1257v-123zM330 1808l153 -254h111l156 254h-97l-114 -215l-113 215h-96z" />
<glyph horiz-adv-x="858" d="M100 0h658v328h-37v-242h-531l560 915v107h-641v-295h36v209h494l-539 -918v-104zM229 1481l154 -254h111l155 254h-96l-115 -215l-112 215h-97z" />
<glyph unicode=" "  horiz-adv-x="499" />
<glyph unicode="&#x09;" horiz-adv-x="499" />
<glyph unicode="&#xa0;" horiz-adv-x="499" />
<glyph unicode="!" horiz-adv-x="604" d="M266 1466l31 -1151h86l31 1151h-148zM268 0h144v141h-144v-141z" />
<glyph unicode="&#x22;" horiz-adv-x="808" d="M242 1057h110v409h-110v-409zM518 1057h111v409h-111v-409z" />
<glyph unicode="#" horiz-adv-x="907" d="M18 473h172l-65 -473h31l65 473h336l-65 -473h92l65 473h191v94h-178l45 332h188v94h-176l65 473h-30l-66 -473h-336l66 473h-92l-66 -473h-186v-94h174l-45 -332h-185v-94zM295 567l45 332h274l-45 -332h-274z" />
<glyph unicode="$" horiz-adv-x="917" d="M63 1104q0 -154 87 -246q86 -90 258 -147q174 -59 247 -125q76 -68 76 -201q0 -145 -72 -235q-70 -88 -192 -89q-74 0 -149.5 31t-112.5 90q-72 119 -82 322h-47v-504h47v217q27 -123 113 -182q14 -10 36.5 -18.5t48 -15.5t52 -12t49.5 -9v-187h72v182q162 2 260 113 q100 113 100 299q0 156 -78 252q-76 96 -278 162q-66 23 -121 49.5t-101 60.5q-90 68 -90 197q0 133 70 215t182 82q61 0 132 -27.5t112 -85.5q82 -113 84 -321h47v495h-47v-192q-37 111 -123 164q-12 8 -31.5 14t-41 12t-42 10.5t-34.5 8.5v192h-72v-184h-2 q-160 0 -258 -107q-98 -109 -99 -280z" />
<glyph unicode="%" horiz-adv-x="1423" d="M172 1102q0 -180 53 -287q53 -102 166 -102t168 102q51 107 51 287q0 184 -53 286.5t-164 102.5t-166 -105q-55 -102 -55 -284zM258 1104q0 145 33 229q35 84 100 84q74 0 105 -84q28 -86 28 -233t-30 -230q-31 -84 -99 -84q-76 0 -106 84q-31 82 -31 234zM299 -25h86 l737 1516h-84zM813 365q0 -180 53 -287q53 -102 166 -103q113 0 166 103t53 287q0 182 -53 288q-53 102 -166 103q-111 0 -166 -105q-53 -106 -53 -286zM899 367q0 147 33 231q31 84 100 84q72 0 102.5 -84t30.5 -236q0 -147 -30 -229q-31 -84 -101 -84q-74 0 -104 84 q-31 82 -31 234z" />
<glyph unicode="&#x26;" horiz-adv-x="1343" d="M117 387q0 -172 94 -291q92 -121 291 -121q127 0 233 64q61 39 139 125l123 -164h285v45h-182l-154 217q76 131 96 252q12 66 18.5 148.5t6.5 148.5h186v45h-448v-45h158q0 -59 -3.5 -133t-9.5 -125q-12 -96 -63 -213l-350 459q109 68 182 164q78 102 78 229 q0 141 -82 221q-84 78 -199 78q-135 0 -219 -82q-84 -80 -84 -215q0 -84 47 -174q23 -43 46.5 -84t51.5 -78l29 -39q-121 -74 -190 -164q-80 -109 -80 -268zM240 389q0 131 59 219q23 35 59.5 69t83.5 68l381 -509q-55 -68 -104 -105q-94 -70 -215 -70q-111 0 -187 93 q-78 90 -77 235zM336 1198q0 100 53 154q49 53 123 53q76 0 125 -55.5t49 -155.5q0 -109 -68 -195q-29 -39 -63.5 -69.5t-73.5 -57.5l-51 66q-14 23 -29.5 53.5t-31.5 65.5q-33 68 -33 141z" />
<glyph unicode="'" horiz-adv-x="505" d="M229 1057h111v409h-111v-409z" />
<glyph unicode="(" horiz-adv-x="493" d="M147 588q0 -279 84 -543q41 -131 79 -226t71 -159h98q-68 127 -145 377q-37 125 -56.5 262t-19.5 289q0 301 78 553q37 125 72.5 219t70.5 158h-98q-33 -63 -71 -158.5t-79 -226.5q-84 -264 -84 -545z" />
<glyph unicode=")" horiz-adv-x="493" d="M27 -340h98q63 125 149 385q84 264 84 543q0 283 -86 545q-82 256 -147 385h-98q68 -127 145 -377q37 -125 56.5 -262.5t19.5 -290.5q0 -299 -78 -551q-37 -125 -73 -219t-70 -158z" />
<glyph unicode="*" horiz-adv-x="749" d="M18 1165l334 -63l-233 -242l88 -65l162 297l161 -297l88 65l-233 242l334 63l-33 105l-307 -150l45 340h-111l45 -340l-307 150z" />
<glyph unicode="+" horiz-adv-x="1103" d="M98 465h406v-465h110v465h404v110h-404v459h-110v-459h-406v-110z" />
<glyph unicode="," horiz-adv-x="512" d="M182 0h62l-29 -262h25l90 262v147h-148v-147z" />
<glyph unicode="-" horiz-adv-x="555" d="M29 647h428v94h-428v-94z" />
<glyph unicode="." horiz-adv-x="258" d="M31 0h147v147h-147v-147z" />
<glyph unicode="/" horiz-adv-x="720" d="M29 -27h112l506 1518h-112z" />
<glyph unicode="0" horiz-adv-x="839" d="M76 733q0 -348 86 -553q82 -205 262 -205q178 0 264 205t86 553q0 344 -84 553q-82 205 -264 205q-178 0 -264 -205q-86 -207 -86 -553zM199 733q0 313 51 492q51 180 174 180t176 -182q51 -179 51 -490q0 -313 -51 -491q-51 -180 -174 -181q-123 0 -176 183 q-51 178 -51 489z" />
<glyph unicode="1" horiz-adv-x="933" d="M262 1139q43 33 98.5 70.5t103.5 71.5t81 57l33 22v-1325h-226v-35h551v35h-215v1431h-123q-35 -41 -72.5 -79.5t-76.5 -73.5t-77 -69t-77 -64v-41z" />
<glyph unicode="2" horiz-adv-x="909" d="M86 0h748v332h-41l2 -234h-607l252 373q53 78 117 154.5t123 162.5q119 172 119 328q0 174 -88 275q-86 100 -240 100q-78 0 -121 -30.5t-88 -92.5q-23 -31 -37 -83t-22 -103.5t-11 -89.5l-2 -37h35q12 152 76 245q61 92 170 93q94 0 149.5 -74t55.5 -195 q0 -143 -105 -293q-51 -76 -109.5 -148.5t-111.5 -152.5l-264 -387v-143z" />
<glyph unicode="3" horiz-adv-x="911" d="M125 408q0 -104 13.5 -183.5t60.5 -136.5q92 -113 262 -113q162 0 256 113q96 113 96 295q0 150 -74 246q-72 96 -211 112q145 23 215 121q70 104 70 236q0 174 -98 284q-96 109 -256 109q-154 0 -252 -115q-47 -57 -62.5 -132t-19.5 -171h41q4 72 32.5 129.5t57.5 102.5 q14 23 38.5 39t52.5 27t57.5 16.5t54.5 5.5q104 0 170 -84q61 -84 61 -211q0 -143 -78 -226q-18 -18 -35.5 -33.5t-39 -24.5t-49 -14t-66.5 -5h-33v-99h33q37 0 63.5 -5t47 -14t39 -24.5t38.5 -34.5q80 -78 80 -229q0 -141 -63 -229q-66 -86 -172 -86q-51 0 -111.5 24.5 t-93.5 71.5t-58.5 106.5t-25.5 131.5h-41z" />
<glyph unicode="4" horiz-adv-x="919" d="M35 422h540v-385h-223v-37h516v37h-182v385h203v86h-203v958h-147q-76 -131 -139.5 -243.5t-116.5 -210.5q-51 -98 -114 -211t-134 -242v-137zM121 508q53 106 109.5 212.5t115.5 215.5q57 109 114.5 214t114.5 210v-852h-454z" />
<glyph unicode="5" horiz-adv-x="905" d="M106 389q0 -190 91 -303q88 -111 243 -111q88 0 167 34t126 100q96 133 96 360q0 221 -88 346q-90 123 -258 123q-84 0 -153 -45q-74 -45 -107 -131l111 663h452v41h-563l-110 -856h110q31 115 94.5 172.5t157.5 57.5q119 0 182 -101q61 -102 62 -272q0 -178 -66 -287 q-33 -53 -88 -79.5t-114 -26.5q-27 0 -63 5t-70.5 16t-64.5 26.5t-44 38.5q-59 88 -66 229h-37z" />
<glyph unicode="6" horiz-adv-x="911" d="M90 637q0 -348 96 -506q92 -156 263 -156q176 0 278 134q100 131 100 352q0 201 -92 330q-92 127 -243 127q-113 0 -205 -80q-55 -49 -88 -146q6 297 59 488q59 223 227 225q102 2 166 -82q63 -82 66 -211h28v80q0 37 -5 69.5t-16 63.5t-34 66q-33 53 -76 76.5t-120 23.5 q-217 0 -312 -236q-92 -238 -92 -618zM205 500q0 119 43 196q76 135 217 135q113 0 184 -108q68 -108 68 -274q0 -174 -70 -281q-68 -106 -182 -107q-125 0 -197 127q-16 29 -28.5 64t-20.5 78l12 -51q-27 121 -26 221z" />
<glyph unicode="7" horiz-adv-x="913" d="M78 1110h39v258h622q-82 -199 -146.5 -364.5t-113.5 -307.5q-47 -139 -104.5 -312t-122.5 -384h119q59 199 114.5 365.5t104.5 308t114.5 312.5t147.5 376v104h-774v-356z" />
<glyph unicode="8" horiz-adv-x="909" d="M102 383q0 -184 97 -297q94 -111 262 -111q166 0 260 113q96 115 96 303q0 139 -69 240q-70 98 -199 127q143 31 207 129q65 96 65 231q0 170 -96 273q-94 100 -260 100q-160 0 -256 -102q-94 -100 -94 -277q0 -117 59 -219q55 -98 199 -135q-129 -29 -199 -123 q-72 -96 -72 -252zM213 387q0 152 68 242q33 45 80 72.5t106 27.5q55 0 99 -28.5t77 -73.5q64 -89 64 -236q0 -152 -66 -241q-61 -88 -180 -89q-121 0 -185 89q-63 84 -63 237zM225 1104q0 137 63.5 219t174.5 82q115 0 182 -80q66 -78 66 -215q0 -143 -68 -225 q-33 -41 -78 -65.5t-102 -24.5q-53 0 -96 25.5t-76 66.5q-66 84 -66 217z" />
<glyph unicode="9" horiz-adv-x="911" d="M90 354q0 -90 12.5 -158.5t57.5 -119.5q43 -51 94 -76t129 -25q109 0 207 58.5t145 177.5q92 235 92 618q0 348 -96 506q-92 156 -262 156q-176 0 -279 -133q-100 -131 -100 -352q0 -201 92 -330q92 -127 244 -127q113 0 205 80q55 49 88 145q-6 -297 -60 -487 q-14 -55 -41.5 -96t-64.5 -70t-78 -44.5t-84 -15.5q-53 -2 -114.5 19.5t-92 62.5t-42 93.5t-13.5 117.5h-39zM201 1018q0 174 69 280q68 106 183 107q125 0 196 -127q16 -29 28.5 -63.5t20.5 -77.5l-12 51q27 -121 27 -221q0 -121 -43 -197q-78 -135 -217 -135 q-113 0 -185 108q-68 106 -67 275z" />
<glyph unicode=":" horiz-adv-x="454" d="M180 0h148v147h-148v-147zM180 877h148v147h-148v-147z" />
<glyph unicode=";" horiz-adv-x="454" d="M152 0h61l-29 -262h25l90 262v147h-147v-147zM182 877h148v147h-148v-147z" />
<glyph unicode="&#x3c;" horiz-adv-x="1103" d="M94 465l924 -488v48l-801 491l801 492v47l-924 -488v-102z" />
<glyph unicode="=" horiz-adv-x="1093" d="M94 262h924v111h-924v-111zM94 659h924v111h-924v-111z" />
<glyph unicode="&#x3e;" horiz-adv-x="1103" d="M94 -23l924 488v102l-924 488v-47l801 -492l-801 -491v-48z" />
<glyph unicode="?" horiz-adv-x="905" d="M195 1106h41q0 133 53 217q51 82 155 82t164 -78q57 -76 58 -199q0 -133 -62 -221q-59 -86 -123 -153q-72 -78 -108 -156q-35 -80 -35 -188v-97h63v93q0 51 19.5 94t36.5 78q8 18 26.5 36.5t40 38t46 39t44.5 39.5q41 41 74 82t55 86q45 90 45 229q0 150 -81 256 q-80 106 -254 107q-43 0 -71 -7t-48.5 -20.5t-37.5 -35t-38 -48.5q-41 -53 -52 -121.5t-11 -152.5zM307 0h144v141h-144v-141z" />
<glyph unicode="@" horiz-adv-x="1292" d="M135 524q0 -238 156 -411q78 -90 163 -137.5t208 -47.5q78 0 161.5 23.5t147.5 64.5l-13 31q-53 -31 -133 -54.5t-145 -23.5q-88 0 -167 25.5t-151 97.5q-35 37 -61.5 87t-44.5 106.5t-27.5 117t-9.5 115.5q0 215 137 365q135 147 326 147q176 0 293 -121 q117 -123 117 -282q0 -154 -76 -266.5t-144 -112.5q-31 0 -49 20q-10 14 -10 35v16q0 10 4 21l144 489h-97l-33 -106q-14 70 -55 106q-43 33 -78 33q-150 0 -241.5 -141t-91.5 -295q0 -125 59 -188q59 -66 139 -66q55 0 103 37q45 35 67 72q12 -63 39 -88q29 -23 55 -23 q125 0 236 135q113 134 113 318q0 193 -140 338q-137 145 -356 145q-227 0 -387 -176q-158 -180 -158 -406zM449 418q0 129 71 250q70 121 174 120q55 0 86 -51q29 -45 29 -133q0 -68 -55 -211q-57 -143 -172 -143q-53 0 -93 39q-41 41 -40 129z" />
<glyph unicode="A" horiz-adv-x="1298" d="M23 0h456v35h-207l129 493h517l129 -493h-207v-35h458v35h-129l-436 1431h-147l-436 -1431h-127v-35zM422 614l237 760l236 -760h-473z" />
<glyph unicode="B" horiz-adv-x="1142" d="M41 0h645q156 0 260 117q103 119 103 291q0 145 -78 247.5t-223 108.5q133 16 200 110q66 96 66 236q0 178 -86 268q-86 88 -264 88h-623v-36h205v-1395h-205v-35zM356 86v623h303q127 0 199 -80q68 -80 68 -223q0 -154 -80 -236q-80 -84 -223 -84h-267zM356 795v585h328 q98 0 154 -77q53 -78 53 -209q0 -137 -68 -220q-65 -79 -179 -79h-3h-285z" />
<glyph unicode="C" horiz-adv-x="1193" d="M102 737q0 -342 144 -553q141 -209 389 -209q205 0 332 129q123 127 133 385h-121q-10 -215 -98 -315t-236 -100q-195 0 -309 182q-111 180 -111 479q0 301 110.5 479.5t315.5 178.5q139 0 242 -109q98 -109 98 -332h45v514h-45v-237q-29 121 -119 190q-94 72 -229 72 q-252 0 -397 -207q-143 -205 -144 -547z" />
<glyph unicode="D" horiz-adv-x="1257" d="M43 0h506q303 0 463 193q155 192 155 542q0 344 -155 537q-153 194 -436 194h-3h-530v-34h205v-1397h-205v-35zM358 86v1294h197q231 0 360 -174q129 -176 129 -467q0 -305 -129 -479q-125 -174 -368 -174h-189z" />
<glyph unicode="E" horiz-adv-x="1142" d="M33 0h995v455h-37v-369h-643v623h414v-254h37v579h-37v-239l-414 2v583h633v-346h37v432h-985v-34h205v-1397h-205v-35z" />
<glyph unicode="F" horiz-adv-x="1028" d="M31 0h567v35h-252v643l404 -2v-242h36v572h-38v-242l-402 2v614h604v-358h37v444h-956v-34h205l4 -1397h-209v-35z" />
<glyph unicode="G" horiz-adv-x="1306" d="M100 733q0 -340 148 -549q143 -209 395 -209q117 0 223 72q51 35 91 86t61 117v-250h39v692h229v41h-522v-41h182v-166q0 -106 -14 -189t-64 -142q-25 -31 -46 -53.5t-45.5 -38t-54.5 -22.5t-71 -7q-205 0 -317 180q-111 178 -111 479q0 305 113 481q111 178 319 179 q164 0 260 -111q94 -111 95 -311v-19h37v514h-37v-231q-33 115 -131 188q-96 68 -228 68q-260 0 -405.5 -207t-145.5 -551z" />
<glyph unicode="H" horiz-adv-x="1335" d="M43 0h520v35h-205v661h643v-661h-204v-35h518v35h-203v1397h203v34h-518v-34h204v-639h-643v639h205v34h-520v-34h205v-1397h-205v-35z" />
<glyph unicode="I" horiz-adv-x="563" d="M23 0h520v35h-205v1397h205v34h-520v-34h204v-1397h-204v-35z" />
<glyph unicode="J" horiz-adv-x="829" d="M35 375q0 -197 82 -299q41 -51 103.5 -77t139.5 -26q147 0 228 101q76 100 76 278v1080h149v34h-465v-34h205v-1047q0 -147 -41 -233q-20 -41 -50 -79t-85 -57q-29 -9 -58 -9q-9 0 -19 1q-38 4 -71.5 21.5t-61.5 43t-46 56.5q-23 39 -36 105.5t-13 142.5v74h-37v-76z" />
<glyph unicode="K" horiz-adv-x="1120" d="M43 0h520v35h-205v688l508 -688h-176v-35h436v35h-125l-557 743l545 654h103v34h-416v-34h180l-498 -650v650h205v34h-520v-34h205v-1397h-205v-35z" />
<glyph unicode="L" horiz-adv-x="1028" d="M33 0h932v471h-39v-385h-578v1346h254v34h-569v-34h205v-1397h-205v-35z" />
<glyph unicode="M" horiz-adv-x="1628" d="M49 0h502v35h-182v1360l411 -1395h82l416 1395v-1360h-184v-35h501v35h-206v1397h204v34h-405l-361 -1267l-368 1267h-410v-34h209v-1397h-209v-35z" />
<glyph unicode="N" horiz-adv-x="1329" d="M41 0h520v35h-205v1343l619 -1378h164v1432h178v34h-494v-34h205v-1307q-74 174 -147.5 337t-149.5 328.5t-149.5 333.5t-147.5 342h-393v-34h205v-1397h-205v-35z" />
<glyph unicode="O" horiz-adv-x="1296" d="M102 733q0 -340 147.5 -549t403.5 -209q254 0 406 209q147 209 147 549q0 342 -149 549q-147 209 -404 209q-256 0 -403.5 -209t-147.5 -549zM225 733q0 309 111 492q111 180 317 180q209 0 319.5 -182.5t110.5 -489.5q0 -311 -110.5 -491.5t-319.5 -180.5 q-207 0 -317 183q-111 180 -111 489z" />
<glyph unicode="P" horiz-adv-x="1028" d="M33 0h561v35h-246v596h244q195 0 299 106q100 111 100 314q0 199 -102 307q-97 108 -289 108h-4h-563v-34h205v-1397h-205v-35zM348 717v663h223q150 0 223.5 -83.5t73.5 -243.5q0 -170 -73 -252q-72 -84 -224 -84h-223z" />
<glyph unicode="Q" horiz-adv-x="1296" d="M102 733q0 -340 147.5 -549t403.5 -209q254 0 406 209q147 209 147 549q0 342 -149 549q-147 209 -404 209q-256 0 -403.5 -209t-147.5 -549zM225 733q0 309 111 492q111 180 317 180q209 0 319.5 -182.5t110.5 -489.5q0 -311 -110.5 -491.5t-319.5 -180.5 q-207 0 -317 183q-111 180 -111 489zM602 -178l23 -10q20 35 45 47q29 12 59 0q33 -14 88 -86q57 -76 98 -90q18 -8 34 -8q10 0 19 3q23 7 43.5 26.5t37 48t32.5 57.5l-22 10q-23 -37 -47 -47q-25 -16 -58 0q-18 6 -39.5 28.5t-50.5 57.5q-61 76 -96 90q-18 8 -35 8 q-9 0 -19 -3q-24 -7 -43.5 -27.5t-37 -48.5t-31.5 -56z" />
<glyph unicode="R" horiz-adv-x="1179" d="M43 0h522v35h-207v643h109q33 0 70.5 -4t71.5 -13.5t60.5 -22.5t39.5 -32q23 -35 41 -84t38 -112l134 -410h233v35h-121l-125 424q-25 88 -67 164q-41 74 -135 90q125 16 200 112q78 100 78 244q0 203 -88 299q-90 98 -274 98h-580v-34h205v-1397h-205v-35zM358 764v616 h226q139 0 211 -80q67 -77 67 -235q0 -139 -71 -221q-72 -80 -203 -80h-230z" />
<glyph unicode="S" horiz-adv-x="958" d="M90 0h43v215q37 -129 121 -184q82 -55 217 -56q39 0 84 7.5t88 20.5t80 34.5t61 50.5q93 113 93 299q0 158 -76 252q-80 98 -275 162q-66 23 -120 49.5t-99 60.5q-88 68 -88 197q0 131 68 215q68 82 180 82q33 0 72 -7t76.5 -21.5t69.5 -36t50 -50.5q74 -117 76 -319h43 v495h-43v-190q-35 106 -121 164q-20 12 -52 21t-65.5 16.5t-67.5 10.5t-59 3q-160 0 -253 -107q-96 -109 -97 -280q0 -158 86 -246q82 -90 252 -147q168 -57 244 -125t76 -203q0 -145 -70 -233q-18 -23 -48 -39.5t-64.5 -27.5t-70.5 -16.5t-67 -5.5q-145 0 -219 117 q-72 115 -82 326h-43v-504z" />
<glyph unicode="T" horiz-adv-x="1159" d="M80 1012h37v356h422v-1333h-242v-35h594v35h-242v1333h424v-356h37v454h-1030v-454z" />
<glyph unicode="U" horiz-adv-x="1222" d="M14 1430h156v-918q0 -262 113 -399q111 -137 331 -138q209 0 330 146q117 143 117 393v916h156v36h-490v-36h221v-924q0 -211 -86 -328q-84 -117 -250 -117q-160 0 -245.5 117t-85.5 324v928h221v36h-488v-36z" />
<glyph unicode="V" horiz-adv-x="1208" d="M-2 1432h129l426 -1432h119l426 1432h129v34h-471v-34h219l-363 -1313l-362 1313h219v34h-471v-34z" />
<glyph unicode="W" horiz-adv-x="1642" d="M2 1432h119l252 -1432h153l291 1358l303 -1358h154l252 1432h116v34h-444v-34h217l-219 -1317l-291 1351h-170l-284 -1351l-220 1317h230v34h-459v-34z" />
<glyph unicode="X" horiz-adv-x="1271" d="M-2 0h483v35h-225l360 649l363 -649h-223v-35h493v35h-135l-422 735l375 662h147v34h-458v-34h188l-313 -578l-312 578h189v34h-471v-34h147l373 -662l-424 -735h-135v-35z" />
<glyph unicode="Y" horiz-adv-x="1120" d="M2 1432h121l383 -820v-577h-236v-35h582v35h-236v577l381 820h119v34h-436v-34h194l-313 -709l-315 709h215v34h-459v-34z" />
<glyph unicode="Z" horiz-adv-x="1073" d="M66 0h919v455h-37v-369h-784l803 1257v123h-877v-432h37v346h741l-802 -1257v-123z" />
<glyph unicode="[" horiz-adv-x="499" d="M197 -340h223v25h-113v1808h113v25h-223v-1858z" />
<glyph unicode="\" horiz-adv-x="720" d="M29 1491l508 -1518h110l-508 1518h-110z" />
<glyph unicode="]" horiz-adv-x="516" d="M106 -315v-25h224v1858h-224v-25h113v-1808h-113z" />
<glyph unicode="^" horiz-adv-x="1097" d="M186 719h113l250 612l250 -612h112l-317 747h-90z" />
<glyph unicode="_" horiz-adv-x="872" d="M0 -305v-103h911v103h-911z" />
<glyph unicode="`" horiz-adv-x="458" d="M53 1491l189 -274h43l-76 274h-156z" />
<glyph unicode="a" horiz-adv-x="901" d="M78 303q0 -152 69 -242q72 -90 203 -90q121 0 192.5 57.5t114.5 190.5l-2 -219h244v35h-143v743q0 172 -78 266q-78 92 -234 93q-156 0 -239.5 -90.5t-89.5 -243.5h45q2 31 4 55.5t8 47t17.5 42t31.5 41.5q25 27 52.5 39t56 17.5t57.5 5.5h55q106 0 156 -74 q47 -72 47 -234v-86h-190q-197 0 -287 -90q-90 -86 -90 -264zM188 299q0 135 72 203q73 69 235 69h5q59 0 82 -6q18 -2 63 -12v-72q0 -184 -70 -303q-68 -121 -204 -121q-90 0 -138 72q-45 70 -45 170z" />
<glyph unicode="b" horiz-adv-x="985" d="M41 1430h141v-1393h-139v-37h250v201q41 -123 113 -176q76 -53 178 -54q168 0 258 160q90 158 90 422q0 266 -92 426q-92 158 -262 158q-82 0 -166 -54q-80 -47 -119 -165v548h-252v-36zM281 563v25q0 211 69 336q72 127 199 127q131 0 201 -138q71 -139 71 -360 q0 -219 -71 -358q-70 -137 -203 -138q-125 0 -197 133q-69 129 -69 366v7z" />
<glyph unicode="c" horiz-adv-x="890" d="M119 555q0 -268 98 -424q100 -158 287 -158q139 0 229 97q92 98 98 280h-100q-6 -115 -65 -203q-57 -88 -160 -88q-131 0 -205 138q-72 137 -72 358q0 225 72 363q74 135 207 135q113 0 172 -88q59 -84 63 -246h48v391h-50v-170q-25 86 -84 143q-61 55 -163 56 q-182 0 -279 -156q-96 -154 -96 -428z" />
<glyph unicode="d" horiz-adv-x="995" d="M76 553q0 -262 90 -424q90 -158 258 -158q102 0 178 54q74 51 113 163v-188h252v35h-142v1431h-286v-36h176v-510q-41 115 -121 165q-84 51 -164 52q-170 0 -262 -160q-92 -158 -92 -424zM186 553q0 221 72 360q70 137 201 138q127 0 198 -127q70 -129 70 -334v-37 q0 -227 -70 -360q-72 -135 -196 -136q-133 0 -203 138q-72 139 -72 358z" />
<glyph unicode="e" horiz-adv-x="884" d="M86 549q0 -276 100 -426q98 -152 299 -152q129 0 222 99q90 96 108 272h-37q-4 -59 -32.5 -110.5t-57.5 -92.5q-31 -41 -94.5 -61.5t-120.5 -20.5q-139 0 -209 131q-66 127 -69 347h651l-10 2q0 274 -91 438q-88 162 -272 162q-190 0 -289 -156q-98 -158 -98 -432z M195 618q8 184 71 300q72 133 195 133q31 0 65.5 -7.5t66.5 -21.5t58.5 -35.5t44.5 -50.5q70 -113 76 -318h-577z" />
<glyph unicode="f" horiz-adv-x="468" d="M6 0h463v35h-186v1036h180v37h-180v68q0 31 2 67.5t7 70.5t11 61.5t16 39.5q37 51 115 51l82 -10v37l-94 10q-63 0 -109.5 -26.5t-79.5 -67.5q-63 -82 -63 -246v-55h-129v-37h129v-1036h-164v-35z" />
<glyph unicode="g" horiz-adv-x="995" d="M78 567q0 -256 92 -411.5t258 -155.5q98 0 180 59q78 57 107 185v-172q0 -186 -53 -271q-27 -41 -93.5 -72.5t-134.5 -31.5q-59 0 -111.5 22.5t-80.5 47.5q-53 49 -56 141h-51q6 -137 88 -207t238 -70q195 0 280 103q84 102 84 323v1014h152v37h-262v-207 q-31 121 -113 178q-78 57 -178 58q-162 0 -254 -158t-92 -412zM188 563q0 215 72 352q70 135 197 136q119 0 190 -133q68 -133 68 -338v-41q0 -100 -21.5 -182.5t-56.5 -145.5q-68 -125 -176 -125q-123 0 -199 135q-74 131 -74 342z" />
<glyph unicode="h" d="M39 1430h166v-1395h-164v-35h440v35h-166v622q0 170 60 283q57 111 162 111q102 0 145 -86q41 -86 41 -246v-684h-174v-35h440v35h-155v723q0 184 -64 280q-61 98 -190 99q-86 0 -158 -45q-74 -49 -107 -158v532h-276v-36z" />
<glyph unicode="i" horiz-adv-x="530" d="M31 0h450v35h-166v1073h-284v-37h174v-1036h-174v-35zM162 1403q0 -45 33 -74q28 -26 64 -26h2.5h3.5q37 0 65 26q32 28 32 71q0 48 -32 77q-28 26 -65 26h-3q-39 0 -67 -26q-33 -29 -33 -74z" />
<glyph unicode="j" horiz-adv-x="450" d="M6 -322v-36l105 -23q53 0 91 20.5t58 49.5q39 57 39 174v1245h-291v-43h178v-1212q0 -119 -14 -156q-12 -37 -59 -41zM139 1403q0 -45 33 -74q28 -26 65 -26h3h3q36 0 64 26q33 29 33 74t-33 74q-28 26 -64 26h-3q-39 0 -68 -26q-33 -29 -33 -74z" />
<glyph unicode="k" horiz-adv-x="909" d="M41 0h436v37h-162v387l152 192l233 -579h-131v-37h349v37h-107l-262 676l295 358h57v37h-369v-37h201l-418 -510v905h-274v-36h164v-1393h-164v-37z" />
<glyph unicode="l" horiz-adv-x="491" d="M31 0h444v35h-160v1431h-284v-34h174v-1397h-174v-35z" />
<glyph unicode="m" horiz-adv-x="1480" d="M18 1073h175v-1038h-168v-35h440v35h-162v631q0 170 59 278q55 106 160 107q84 0 127 -84t43 -224v-708h-176v-35h438v35h-149v643q0 174 53 272q49 100 156 101q86 0 133 -84q45 -82 45 -224v-708h-172v-35h434v35h-151v723q0 178 -68 280q-66 98 -199 99 q-90 0 -159 -60q-63 -55 -93 -157q-16 100 -73 157q-59 59 -162 60q-82 0 -148 -52q-63 -49 -98 -151v174h-285v-35z" />
<glyph unicode="n" d="M23 0h444v35h-160v622q0 170 60 283q57 111 161 111q102 0 146 -86q41 -86 41 -246v-684h-174v-35h444v35h-160v723q0 184 -63 280q-61 98 -191 99q-86 0 -157 -45q-74 -49 -107 -158v174h-284v-35h174v-1038h-174v-35z" />
<glyph unicode="o" horiz-adv-x="921" d="M90 553q0 -262 103 -424q104 -158 286 -158q186 0 289 160q102 154 102 422q0 270 -102 426q-102 158 -289 158q-182 0 -286 -160q-102 -158 -103 -424zM201 553q0 221 73 360q74 137 205 138q133 0 207 -138q74 -139 74 -360t-74 -358.5t-207 -137.5 q-131 0 -204.5 137.5t-73.5 358.5z" />
<glyph unicode="p" horiz-adv-x="985" d="M12 -303v-37h439v37h-168v496q41 -119 116 -170q80 -51 168 -52q170 0 262 160q93 156 93 422q0 264 -91 426q-90 158 -258 158q-98 0 -174 -56q-74 -55 -116 -174v201h-271v-35h160v-1376h-160zM270 518v25q0 246 70 377t197 131q133 0 202 -138q72 -139 72 -360 q0 -219 -72 -358q-70 -137 -200 -138q-127 0 -199 127q-70 125 -70 334z" />
<glyph unicode="q" horiz-adv-x="995" d="M78 553q0 -264 92 -424q90 -158 262 -158q90 0 168 52q78 53 115 165l4 -491h-168v-37h436v37h-162v1372h164v37h-274v-205q-37 119 -115 178q-76 57 -174 58q-170 0 -258 -156q-90 -158 -90 -428zM188 553q0 221 72 360q70 137 203 138q127 0 196 -131q68 -133 68 -371 v-25q0 -213 -70 -340q-72 -127 -196 -127q-133 0 -203 138q-35 70 -52.5 158.5t-17.5 199.5z" />
<glyph unicode="r" horiz-adv-x="573" d="M27 0h479v35h-201v618q0 174 60 281q55 102 167 102l46 -6l20 98l-59 7q-76 0 -142 -54q-61 -47 -94 -178v205h-276v-37h166v-1036h-166v-35z" />
<glyph unicode="s" horiz-adv-x="827" d="M70 -20h47v170q6 -25 24.5 -46.5t40 -39t44 -31t40.5 -23.5q66 -39 154 -39q160 0 242 88q83 88 83 248q0 129 -57 205q-59 76 -225 96q-164 23 -213 74q-47 53 -47 129q0 100 55 172q51 68 156 68q106 0 168 -70q61 -72 61 -174v-62h47v363h-47v-133q-27 80 -94 121 q-66 41 -158 41q-133 0 -215 -93q-84 -94 -84 -249q0 -143 84 -203q86 -61 215 -76q152 -18 199 -65q45 -51 45 -152q0 -117 -62 -180q-59 -61 -163 -62q-106 0 -170 80q-16 20 -37 45t-39.5 53.5t-31.5 62.5t-15 73h-47v-391z" />
<glyph unicode="t" horiz-adv-x="602" d="M25 1067h153v-856q0 -123 49 -180q25 -29 78 -44.5t107 -15.5q51 0 77.5 18.5t57.5 53.5q59 72 59 205v35h-39q0 -125 -32 -177q-16 -25 -48 -37t-61 -12q-27 0 -59.5 10.5t-47.5 30.5q-28 40 -28 112v5v852h250v41h-250v266l-113 -41v-225h-153v-41z" />
<glyph unicode="u" d="M31 1073h151v-713q0 -190 62 -290q57 -98 192 -99q96 0 166 58q72 55 103 166v-195h272v35h-166v1073h-272v-35h163v-627q0 -166 -63 -278q-66 -111 -162 -111q-106 0 -145 80q-39 78 -39 242v729h-262v-35z" />
<glyph unicode="v" horiz-adv-x="888" d="M23 1069h92l272 -1069h119l282 1069h93v39h-353v-39h150l-225 -954l-228 954h150v39h-352v-39z" />
<glyph unicode="w" horiz-adv-x="1445" d="M47 1073h92l242 -1073h129l231 993l228 -993h129l237 1073h92v35h-350v-35h148l-199 -954l-211 989h-96h-51l-215 -989l-203 954h164v35h-367v-35z" />
<glyph unicode="x" horiz-adv-x="937" d="M29 0h360v35h-145l237 461l234 -461h-146v-35h363v35h-94l-299 536l276 500h107v37h-361v-37h131l-211 -426l-211 426h148v37h-361v-37h90l275 -500l-301 -536h-92v-35z" />
<glyph unicode="y" horiz-adv-x="888" d="M14 1073h97l307 -1061l-41 -153q-6 -18 -13.5 -43t-15.5 -49.5t-15 -44t-14 -27.5q-27 -33 -79 -33l-74 12v-30l78 -19q45 0 77.5 16.5t55 45t43 69.5t37.5 94l350 1223h72v35h-336v-35h153l-237 -868l-238 868h154v35h-361v-35z" />
<glyph unicode="z" horiz-adv-x="858" d="M100 0h658v328h-47v-242h-521l560 915v107h-641v-295h43v209h487l-539 -918v-104z" />
<glyph unicode="{" horiz-adv-x="507" d="M72 547q57 -2 92 -82q33 -74 33 -199v-370q0 -96 43 -166t145 -70h80v25h-86q-29 0 -51 47q-20 43 -21 145v397q0 139 -39 211q-37 72 -92 103q55 33 94 106q37 70 37 209v397q0 104 21 148q20 45 51 45h86v25h-80q-102 0 -145 -72t-43 -164v-371q0 -125 -33 -198 q-35 -80 -92 -82v-84z" />
<glyph unicode="|" horiz-adv-x="454" d="M172 -27h111v1518h-111v-1518z" />
<glyph unicode="}" horiz-adv-x="507" d="M51 -315v-25h78q100 0 147 72q43 70 43 164v370q0 125 33 199q35 80 92 82v84q-57 2 -92 82q-33 74 -33 198v371q0 96 -45 166q-43 70 -145 70h-78v-25h86q27 0 51 -47q10 -23 15.5 -58.5t5.5 -87.5v-397q0 -139 39 -210.5t92 -104.5q-53 -31 -92 -105q-39 -70 -39 -209 v-397q0 -104 -21 -147q-20 -45 -51 -45h-86z" />
<glyph unicode="~" horiz-adv-x="1103" d="M141 463l66 -70q35 78 69 109q39 35 82 35q59 0 189 -68q125 -68 207 -68q80 0 133 50q51 44 88 122q-14 10 -22.5 19.5t-12.5 13.5q-6 8 -31 37q-35 -74 -71 -108q-35 -35 -80 -35q-59 0 -189 67q-127 68 -207 68q-82 0 -133 -49q-51 -45 -88 -123z" />
<glyph unicode="&#xa1;" horiz-adv-x="604" d="M266 -346h148l-31 1151h-86zM268 979h144v141h-144v-141z" />
<glyph unicode="&#xa2;" horiz-adv-x="890" d="M109 553q0 -268 98 -424q84 -133 242 -156v-176h69v176q123 8 205 95q92 98 98 280h-100q-6 -113 -66 -203q-49 -78 -137 -86v992q94 -8 152 -88q59 -84 63 -246h43v391h-45v-170q-25 90 -84 143q-47 45 -129 54v176h-69v-176q-162 -16 -244 -154q-96 -158 -96 -428z M219 553q0 225 72 362q57 104 158 132v-986q-104 29 -158 134q-72 135 -72 358z" />
<glyph unicode="&#xa3;" horiz-adv-x="890" d="M49 0h762v317h-47v-231h-445q2 117 3 186q0 72 -2.5 120t-3.5 83t-2 78t1 105.5t7 164.5h196v45h-196l6 187q4 92 14 159.5t35 108.5q49 82 151 82q106 0 150 -68q39 -57 39 -155v-27h49v29q0 137 -63.5 222t-170.5 85q-164 0 -241 -115q-37 -57 -53.5 -133t-20.5 -170 l-6 -205h-156v-45h154v-778h-160v-45z" />
<glyph unicode="&#xa4;" horiz-adv-x="1193" d="M23 604h127q20 -248 137 -420q141 -209 389 -209q205 0 332 129q123 127 133 385h-121q-10 -215 -98 -315t-236 -100q-195 0 -309 182q-41 72 -67.5 158t-37.5 190h836v58h-840q-2 18 -2 36v37v37q0 18 2 37h840v57h-836q18 211 105 348q111 178 315 179q139 0 242 -109 q98 -109 98 -332h47v514h-47v-237q-29 121 -119 190q-94 72 -229 72q-254 0 -397 -207q-115 -162 -137 -418h-127v-57h122q-2 -18 -2 -37v-35v-39q0 -18 2 -36h-122v-58z" />
<glyph unicode="&#xa5;" horiz-adv-x="890" d="M0 1432h100l224 -668h-179v-35h193l59 -172v-78h-254v-37h254v-405h-192v-37h485v37h-192v405h245v37h-245v84l59 166h184v35h-174l224 668h102v34h-361v-34h160l-248 -707l-245 707h176v34h-375v-34z" />
<glyph unicode="&#xa6;" horiz-adv-x="454" d="M172 -27h111v568h-111v-568zM172 924h111v567h-111v-567z" />
<glyph unicode="&#xa7;" horiz-adv-x="905" d="M135 659q0 -106 43 -170q20 -31 63.5 -58.5t102.5 -61.5l111 -64q111 -43 166 -98q53 -53 53 -125q0 -111 -64 -156q-63 -47 -137 -47q-115 0 -168 78q-49 76 -51 188h-78q0 -166 82 -266q39 -49 81 -73.5t126 -24.5q139 0 229 82q90 84 90 229q0 80 -57 150 q-55 70 -127 98q84 29 135 102q51 72 51 170q0 104 -43 170q-20 31 -62 58.5t-101 62.5l-113 64q-109 43 -164 98q-53 53 -53 125q0 109 61 156q63 47 138 47q115 0 167 -78q51 -78 54 -189h73q0 166 -81 267q-20 25 -39 43t-41.5 30.5t-52 18.5t-72.5 6q-137 0 -228 -82 q-90 -84 -90 -229q0 -80 56 -150q55 -72 129 -98q-86 -29 -138 -103q-51 -72 -51 -170zM246 670q0 76 39 135q41 61 104 82q27 -14 50.5 -26.5t45.5 -24.5q23 -10 42.5 -23.5t37.5 -26.5q66 -43 88 -79q23 -42 23 -105q0 -76 -39 -135q-41 -61 -105 -82q-27 14 -50 26.5 t-46 24.5q-23 10 -42 23.5t-38 25.5q-66 47 -88 82q-23 41 -22 103z" />
<glyph unicode="&#xa8;" horiz-adv-x="528" d="M61 1350q0 -29 22.5 -51.5t51.5 -22.5q30 -1 53 22q20 23 21 52q0 29 -21 51q-23 23 -53 22q-29 0 -51.5 -22.5t-22.5 -50.5zM351.5 1349.5q-1.5 -28.5 21 -51t51.5 -22.5q30 -1 53 22t23 52t-22.5 51t-53.5 22q-29 0 -51 -22q-20 -23 -21.5 -51.5z" />
<glyph unicode="&#xa9;" horiz-adv-x="1468" d="M66 651q0 -272 198 -475q199 -197 479 -196q279 0 478 198q198 196 198 475q0 276 -198 475q-201 197 -480 197t-477 -198.5t-198 -475.5zM166 651q0 238 170 412q170 170 407 170q238 0 408 -172q170 -170 170 -410q0 -238 -170 -411q-170 -170 -408 -170 q-240 0 -407 172q-170 170 -170 409zM375 653q0 -225 94 -364q92 -137 256 -137q135 0 219 84q82 83 88 253h-80q-6 -141 -63 -206q-59 -68 -156 -68q-131 0 -205 121q-74 119 -73 317q0 199 73 316q76 119 209 118q92 0 158 -71.5t66 -218.5h30v338h-30v-156 q-16 78 -78 125q-59 47 -152 47q-168 0 -262 -135q-94 -133 -94 -363z" />
<glyph unicode="&#xaa;" horiz-adv-x="591" d="M25 1020q0 -88 47 -146q47 -53 139 -53q78 0 129 35q49 35 80 113l-2 -131h166v30h-99v437q0 102 -53 159q-53 55 -158 56q-43 0 -76.5 -17.5t-57 -45t-36 -63.5t-14.5 -75h35q6 72 41 113q33 37 106 36q72 0 105 -45q33 -41 33 -139v-51h-129q-133 0 -195 -55 q-61 -53 -61 -158zM100 1018q0 80 50 121q47 41 161 41l99 -11v-43q0 -106 -48 -182q-43 -72 -139 -72q-61 0 -92 43q-31 39 -31 103z" />
<glyph unicode="&#xab;" horiz-adv-x="808" d="M129 561l143 -448h25l-72 448l74 449h-25zM440 561l144 -448h24l-71 448l73 449h-24z" />
<glyph unicode="&#xac;" horiz-adv-x="1103" d="M98 662h813v-441h111v551h-924v-110z" />
<glyph unicode="&#xad;" horiz-adv-x="555" d="M29 647h428v94h-428v-94z" />
<glyph unicode="&#xae;" horiz-adv-x="1468" d="M70 651q0 -276 198 -475q197 -197 475 -196q276 0 476 198q196 196 196 475q0 276 -198 475q-197 197 -476 197q-276 0 -475 -199q-197 -197 -196 -475zM170 651q0 242 168 412q51 51 113 90h100v-922h-135v-22h346v22h-137v424h71q45 0 94.5 -11t65.5 -36 q14 -23 26.5 -55.5t26.5 -73.5l86 -270h119q-158 -139 -371 -139q-238 0 -405 172q-168 168 -168 409zM494 1176q113 57 249 57q236 0 406 -172q168 -168 168 -410t-168 -411l-10 -9h-68l-84 281q-16 59 -43 106q-29 51 -90 60q80 8 133 76q51 63 51 159q0 129 -57 199 q-57 63 -182 64h-305zM625 713v407h149q90 0 137 -53q45 -52 45 -156q0 -96 -47 -145q-45 -53 -133 -53h-151z" />
<glyph unicode="&#xaf;" horiz-adv-x="436" d="M-2 1307h453v86h-453v-86z" />
<glyph unicode="&#xb0;" horiz-adv-x="739" d="M117 1198q0 -106 78 -184q80 -76 182 -76q106 0 184 78q76 80 76 182q0 106 -78 184q-80 76 -182 76q-106 0 -184 -78q-76 -80 -76 -182zM203 1198q0 74 51 125q49 49 123 49t125 -51q49 -49 49 -123t-51 -125q-49 -49 -123 -49t-125 51q-49 49 -49 123z" />
<glyph unicode="&#xb1;" horiz-adv-x="1103" d="M98 0h924v111h-924v-111zM98 555h406v-371h110v371h408v111h-408v370h-110v-370h-406v-111z" />
<glyph unicode="&#xb2;" horiz-adv-x="591" d="M57 598h502v199h-49l2 -140h-385l168 224q41 45 81 92t81 98q80 100 80 197q0 100 -60 164q-59 61 -162 61q-104 0 -165 -74q-31 -37 -39.5 -84t-12.5 -104h54q10 90 51 147q39 55 112 56q63 0 101 -45q37 -43 37 -117q0 -86 -70 -174q-35 -45 -73 -90t-74 -93l-179 -231 v-86z" />
<glyph unicode="&#xb3;" horiz-adv-x="591" />
<glyph unicode="&#xb4;" horiz-adv-x="460" d="M195 1217h43l186 274h-156z" />
<glyph unicode="&#xb5;" d="M31 1071h151v-1411h113v410q16 -39 57 -68q39 -31 92 -31q90 0 160 58q68 53 96 166v-195h277v35h-166v1073h-276v-37h163v-625q0 -166 -63 -278q-61 -111 -160 -111q-102 0 -141 80q-39 78 -39 242v729h-264v-37z" />
<glyph unicode="&#xb6;" horiz-adv-x="1114" d="M158 1094q0 -150 96 -246t250 -98v-947h108v1606h185v-1606h108v1661h-393q-166 0 -260 -100t-94 -270z" />
<glyph unicode="&#xb7;" horiz-adv-x="454" d="M182 598h148v147h-148v-147z" />
<glyph unicode="&#xb8;" horiz-adv-x="471" d="M43 -350q35 -25 85 -37t91 -12q84 0 124 41t36 91t-53.5 91t-143.5 41l90 145h-57l-94 -149l20 -39q59 14 93 -1.5t46.5 -45t3 -63.5t-36 -55.5t-69.5 -20t-100 41.5z" />
<glyph unicode="&#xb9;" horiz-adv-x="591" d="M129 1253q55 37 113 84q29 23 53 37.5t47 38.5v-772h-154v-43h371v43h-143v838h-82q-25 -25 -49.5 -47.5t-51.5 -45.5q-53 -43 -104 -79v-54z" />
<glyph unicode="&#xba;" horiz-adv-x="567" d="M41 1169q0 -160 69.5 -254t196.5 -94q125 0 197 97q69 93 69 251q0 162 -69.5 256.5t-196.5 94.5q-125 0 -196 -97q-70 -94 -70 -254zM117 1169q0 135 51 217q49 82 139 82q88 0 142 -84q49 -84 49 -215q0 -133 -52 -215q-49 -82 -139 -82t-141 82q-49 82 -49 215z" />
<glyph unicode="&#xbb;" horiz-adv-x="808" d="M201 1010l75 -449l-73 -448h24l146 448l-148 449h-24zM512 1010l76 -449l-74 -448h25l145 448l-147 449h-25z" />
<glyph unicode="&#xbc;" horiz-adv-x="1366" d="M66 1253q55 37 112 84q29 23 53.5 37.5t47.5 38.5v-776h-154v-39h371v39h-144v842h-82q-25 -25 -49 -47.5t-51 -45.5q-53 -43 -104 -79v-54zM217 -55h70l864 1577h-70zM764 254h362v-215h-151v-39h346v39h-121v215h135v51h-135v576h-98l-338 -545v-82zM821 305l305 510 v-510h-305z" />
<glyph unicode="&#xbd;" horiz-adv-x="1366" d="M66 1253q27 16 55.5 34t56.5 42q29 23 53.5 41.5t47.5 42.5v-764h-154v-51h371v51h-144v830h-82q-25 -25 -49 -47.5t-51 -45.5q-53 -43 -104 -79v-54zM213 -55h70l864 1577h-70zM895 0h502v199h-47l2 -140h-387l168 224q41 45 80.5 92t80.5 98q80 100 80 197 q0 100 -59 164q-59 61 -162 61q-104 0 -166 -74q-31 -37 -39 -84t-12 -104h53q10 90 51 147q39 55 113 56q63 0 100 -45q37 -43 37 -117q0 -86 -69 -174q-35 -45 -73 -90t-75 -93l-178 -231v-86z" />
<glyph unicode="&#xbe;" horiz-adv-x="1366" d="M276 -55h70l864 1577h-69zM827 254h363v-215h-152v-39h346v39h-120v215h135v51h-135v576h-99l-338 -545v-82zM885 305l305 510v-510h-305z" />
<glyph unicode="&#xbf;" horiz-adv-x="903" d="M129 -6q0 -150 82 -256.5t256 -106.5q168 0 254 111q84 108 84 274h-123q0 -133 -53 -217q-51 -82 -156 -82q-104 0 -164 78q-57 80 -57 199q0 131 61 221q61 86 123 154q72 78 109 155q35 80 35 189v96h-123v-92q0 -102 -37 -172q-35 -72 -117 -154q-41 -41 -72.5 -82 t-54.5 -86q-47 -88 -47 -229zM446 981h144v141h-144v-141z" />
<glyph unicode="&#xc0;" horiz-adv-x="1298" d="M23 0h456v35h-207l129 493h517l129 -493h-207v-35h458v35h-129l-436 1431h-147l-436 -1431h-127v-35zM422 614l237 760l236 -760h-473zM494 1808l174 -254l22 2l-69 252h-127z" />
<glyph unicode="&#xc1;" horiz-adv-x="1298" d="M23 0h456v35h-207l129 493h517l129 -493h-207v-35h458v35h-129l-436 1431h-147l-436 -1431h-127v-35zM422 614l237 760l236 -760h-473zM614 1544h43l187 275h-156z" />
<glyph unicode="&#xc2;" horiz-adv-x="1298" d="M23 0h456v35h-207l129 493h517l129 -493h-207v-35h458v35h-129l-436 1431h-147l-436 -1431h-127v-35zM422 614l237 760l236 -760h-473zM428 1544h41l188 201l191 -201h41l-170 275h-123z" />
<glyph unicode="&#xc3;" horiz-adv-x="1298" d="M23 0h456v35h-207l129 493h517l129 -493h-207v-35h458v35h-129l-436 1431h-147l-436 -1431h-127v-35zM422 614l237 760l236 -760h-473zM428 1599h23q4 37 26.5 62t61.5 25q27 0 56.5 -14.5t61 -32t62.5 -32t59 -14.5q41 0 62.5 14.5t32 37t12.5 51t4 59.5h-23 q-6 -37 -26.5 -61.5t-61.5 -24.5q-27 0 -57.5 14.5t-62 32t-62.5 31.5t-57 14q-43 0 -64.5 -13t-32 -36.5t-11.5 -52.5t-3 -60z" />
<glyph unicode="&#xc4;" horiz-adv-x="1298" d="M16 0h457v35h-207l129 493h516l129 -493h-206v-35h458v35h-129l-436 1431h-147l-437 -1431h-127v-35zM416 614l237 760l236 -760h-473zM440 1677q0 -29 22.5 -51t51.5 -22q30 -1 53 22t23 51q0 29 -22.5 51.5t-53.5 22.5q-29 0 -51.5 -22.5t-22.5 -51.5zM731 1677 q0 -29 22.5 -51t51.5 -22q28 -1 51 22t23 51q0 29 -22.5 51.5t-51.5 22.5t-51.5 -22.5t-22.5 -51.5z" />
<glyph unicode="&#xc5;" horiz-adv-x="1298" d="M23 0h456v35h-207l129 493h517l129 -493h-207v-35h458v35h-129l-436 1431h-147l-436 -1431h-127v-35zM422 614l237 760l236 -760h-473zM492 1677q0 -68 49 -116q47 -47 114 -48q68 0 117 50q47 46 47 114t-49 117q-47 47 -115 47t-116 -49q-47 -47 -47 -115zM565 1677 q0 37 26.5 63.5t63.5 26.5q39 0 66 -26q24 -29 24 -64q0 -37 -26 -63q-25 -27 -64 -27q-37 0 -63.5 26.5t-26.5 63.5z" />
<glyph unicode="&#xc6;" horiz-adv-x="792" d="M25 1083h153v-872q0 -123 49 -180q25 -29 78 -44.5t107 -15.5q51 0 77.5 18.5t57.5 53.5q59 72 59 205v35h-24q0 -125 -33 -177q-16 -25 -55 -37t-68 -12q-27 0 -59.5 10.5t-47.5 30.5q-29 41 -28 117v868h250v25h-250v266l-113 -41v-225h-153v-25zM317 -233 q12 -76 47 -127.5t80 -77t95 -25.5q49 0 94 25.5t78 77t45 127.5h-33q-16 -72 -69.5 -107t-114.5 -35t-115.5 35t-73.5 107h-33zM317 995q12 -76 47 -127t80 -76.5t95 -25.5q49 0 94 25.5t78 76.5t45 127h-33q-16 -72 -69.5 -106.5t-114.5 -34.5t-115.5 35t-73.5 106h-33z " />
<glyph unicode="&#xc7;" horiz-adv-x="1193" d="M102 737q0 -342 144 -553q131 -197 362 -209l-71 -114l20 -39q41 10 76 5t60.5 -19.5t38.5 -36t11 -43.5q-4 -27 -25.5 -50.5t-56 -34t-78.5 -4t-89 38.5l-35 -28q35 -25 85 -37t91 -12q84 0 124 41t36 91t-53.5 91t-143.5 41l70 110q186 10 299 129q123 127 133 385 h-121q-10 -215 -98 -315t-236 -100q-195 0 -309 182q-111 180 -111 479q0 301 110.5 479.5t315.5 178.5q139 0 242 -109q98 -109 98 -332h43v514h-43v-237q-29 121 -119 190q-94 72 -229 72q-252 0 -397 -207q-143 -205 -144 -547z" />
<glyph unicode="&#xc8;" horiz-adv-x="1142" d="M33 0h1001v455h-43v-369h-643v623h332v-254h43v579h-43v-239l-332 2v583h633v-346h37v432h-985v-34h205v-1397h-205v-35zM393 1819l189 -275h43l-76 275h-156z" />
<glyph unicode="&#xc9;" horiz-adv-x="1142" d="M33 0h995v455h-37v-369h-643v623h332v-254h37v579h-37v-239l-332 2v583h633v-346h37v432h-985v-34h205v-1397h-205v-35zM535 1544h43l186 275h-156z" />
<glyph unicode="&#xca;" horiz-adv-x="1142" d="M33 0h995v455h-37v-369h-643v623h332v-254h37v579h-37v-239l-332 2v583h633v-346h37v432h-985v-36h205v-1395h-205v-35zM348 1544h41l189 201l190 -201h41l-170 275h-123z" />
<glyph unicode="&#xcb;" horiz-adv-x="1142" d="M33 0h1001v455h-43v-369h-643v623h332v-254h43v579h-43v-239l-332 2v583h633v-346h37v432h-985v-34h205v-1397h-205v-35zM367 1677q0 -29 22.5 -51t50.5 -22q31 -1 54 22t22 51q0 29 -22.5 51.5t-53.5 22.5q-29 0 -51 -22.5t-22 -51.5zM655 1677q0 -29 22.5 -51t51.5 -22 q30 -1 53 22t23 51q0 29 -22.5 51.5t-53.5 22.5q-29 0 -51.5 -22.5t-22.5 -51.5z" />
<glyph unicode="&#xcc;" horiz-adv-x="563" d="M29 0h520v35h-205v1397h205v34h-520v-34h204v-1397h-204v-35zM119 1819l188 -275h43l-76 275h-155z" />
<glyph unicode="&#xcd;" horiz-adv-x="563" d="M29 0h520v35h-205v1397h205v34h-520v-34h204v-1397h-204v-35zM258 1544h43l186 275h-155z" />
<glyph unicode="&#xce;" horiz-adv-x="563" d="M29 0h520v35h-205v1397h205v34h-520v-34h204v-1397h-204v-35zM72 1544h41l188 201l191 -201h40l-170 275h-122z" />
<glyph unicode="&#xcf;" horiz-adv-x="563" d="M29 0h520v35h-205v1397h205v34h-520v-34h204v-1397h-204v-35zM92 1677q0 -29 22.5 -51t51.5 -22q30 -1 53 22t22 51.5t-22 51.5q-23 23 -53 22q-29 0 -51.5 -22.5t-22.5 -51.5zM382 1677.5q-1 -28.5 21.5 -51t51.5 -22.5q30 -1 53 22t22 51q0 29 -22.5 51.5t-52.5 22.5 q-29 0 -52 -22q-20 -23 -21 -51.5z" />
<glyph unicode="&#xd0;" horiz-adv-x="1257" d="M31 0h506q303 0 462 193q156 192 156 542q0 344 -156 537q-154 195 -438 194h-530v-43h205v-585h-201v-52h201v-741h-205v-45zM346 86v700h385v52h-385v542h197q231 0 360 -174q129 -176 129 -467q0 -305 -129 -479q-125 -174 -368 -174h-189z" />
<glyph unicode="&#xd1;" horiz-adv-x="1329" d="M41 0h520v37h-205v1339l619 -1376h164v1430h178v36h-494v-36h205v-1315q-74 174 -147.5 342t-149.5 333.5t-149.5 333.5t-147.5 342h-393v-36h205v-1393h-205v-37zM442 1589h45q4 43 23 62q23 23 55 22q37 0 115 -45t125 -45t70.5 15.5t35 42t12.5 58t5 66.5h-45 q-4 -41 -25 -61q-18 -23 -53 -23q-39 0 -117 45.5t-123 45.5q-47 0 -71.5 -15.5t-34.5 -41t-12.5 -58.5t-4.5 -68z" />
<glyph unicode="&#xd2;" horiz-adv-x="1296" d="M102 733q0 -340 147.5 -549t403.5 -209q254 0 406 209q147 209 147 549q0 342 -149 549q-147 209 -404 209q-256 0 -403.5 -209t-147.5 -549zM225 733q0 309 111 492q111 180 317 180q209 0 319.5 -182.5t110.5 -489.5q0 -311 -110.5 -491.5t-319.5 -180.5 q-207 0 -317 183q-111 180 -111 489zM504 1819l188 -275h43l-76 275h-155z" />
<glyph unicode="&#xd3;" horiz-adv-x="1296" d="M102 733q0 -340 147.5 -549t403.5 -209q254 0 406 209q147 209 147 549q0 342 -149 549q-147 209 -404 209q-256 0 -403.5 -209t-147.5 -549zM225 733q0 309 111 492q111 180 317 180q209 0 319.5 -182.5t110.5 -489.5q0 -311 -110.5 -491.5t-319.5 -180.5 q-207 0 -317 183q-111 180 -111 489zM643 1544h43l186 275h-155z" />
<glyph unicode="&#xd4;" horiz-adv-x="1296" d="M102 733q0 -340 147.5 -549t403.5 -209q254 0 406 209q147 209 147 549q0 342 -149 549q-147 209 -404 209q-256 0 -403.5 -209t-147.5 -549zM225 733q0 309 111 492q111 180 317 180q209 0 319.5 -182.5t110.5 -489.5q0 -311 -110.5 -491.5t-319.5 -180.5 q-207 0 -317 183q-111 180 -111 489zM457 1544h41l188 201l191 -201h41l-170 275h-123z" />
<glyph unicode="&#xd5;" horiz-adv-x="1296" d="M102 733q0 -340 147.5 -549t403.5 -209q254 0 406 209q147 209 147 549q0 342 -149 549q-147 209 -404 209q-256 0 -403.5 -209t-147.5 -549zM225 733q0 309 111 492q111 180 317 180q209 0 319.5 -182.5t110.5 -489.5q0 -311 -110.5 -491.5t-319.5 -180.5 q-207 0 -317 183q-111 180 -111 489zM459 1599h22q4 37 26.5 62t61.5 25q27 0 56.5 -14.5t61.5 -32t62.5 -32t59.5 -14.5q41 0 62.5 14.5t31.5 37t12.5 51t4.5 59.5h-23q-6 -37 -26.5 -61.5t-61.5 -24.5q-27 0 -57.5 14.5t-62.5 32t-62.5 31.5t-57.5 14q-43 0 -64.5 -13 t-31.5 -36.5t-11 -52.5t-3 -60z" />
<glyph unicode="&#xd6;" horiz-adv-x="1296" d="M102 733q0 -340 147.5 -549t403.5 -209q254 0 406 209q147 209 147 549q0 342 -149 549q-147 209 -404 209q-256 0 -403.5 -209t-147.5 -549zM225 733q0 309 111 492q111 180 317 180q209 0 319.5 -182.5t110.5 -489.5q0 -311 -110.5 -491.5t-319.5 -180.5 q-207 0 -317 183q-111 180 -111 489zM457 1677q0 -29 22.5 -51t50.5 -22q31 -1 54 22t21.5 51.5t-21.5 51.5q-23 23 -54 22q-29 0 -51 -22.5t-22 -51.5zM746.5 1677.5q-1.5 -28.5 21.5 -51t51 -22.5q30 -1 53 22t23 51q0 29 -22.5 51.5t-53.5 22.5q-29 0 -51 -22 q-20 -23 -21.5 -51.5z" />
<glyph unicode="&#xd7;" horiz-adv-x="1228" d="M143 119l74 -74l397 397l398 -397l73 74l-397 397l397 397l-73 74l-398 -397l-397 397l-74 -74l398 -397z" />
<glyph unicode="&#xd8;" horiz-adv-x="792" d="M66 -233q18 -115 81.5 -172.5t135.5 -57.5q74 0 137.5 57.5t83.5 172.5h-33q-18 -72 -72.5 -107t-115.5 -35t-114.5 35t-70.5 107h-32zM66 995q18 -115 81.5 -172t135.5 -57q74 0 137.5 57t83.5 172h-33q-18 -72 -72.5 -106.5t-115.5 -34.5t-114.5 35t-70.5 106h-32z M215 248q0 -135 61 -205q29 -35 55.5 -53.5t78.5 -18.5q53 0 106 15.5t78 44.5q49 57 49 180v872h154v25h-154v225l-113 41v-266h-249v-25h249v-868q0 -78 -28 -119q-12 -20 -46 -29.5t-61 -9.5q-29 0 -66.5 12.5t-56.5 39.5q-33 53 -32 174h-25v-35z" />
<glyph unicode="&#xd9;" horiz-adv-x="1222" d="M14 1430h156v-918q0 -262 113 -399q111 -137 331 -138q209 0 330 146q117 143 117 393v916h156v36h-490v-36h221v-924q0 -211 -86 -328q-84 -117 -250 -117q-160 0 -245.5 117t-85.5 324v928h221v36h-488v-36zM451 1819l188 -275h43l-76 275h-155z" />
<glyph unicode="&#xda;" horiz-adv-x="1222" d="M14 1432h156v-920q0 -262 113 -399q111 -137 331 -138q209 0 330 146q117 143 117 393v918h156v34h-490v-34h221v-926q0 -211 -86 -328q-84 -117 -250 -117q-160 0 -245.5 117t-85.5 324v930h221v34h-488v-34zM590 1544h43l186 275h-155z" />
<glyph unicode="&#xdb;" horiz-adv-x="1222" d="M14 1432h156v-920q0 -262 113 -399q111 -137 331 -138q209 0 330 146q117 143 117 393v918h156v34h-490v-34h221v-926q0 -211 -86 -328q-84 -117 -250 -117q-160 0 -245.5 117t-85.5 324v930h221v34h-488v-34zM403 1544h41l189 201l190 -201h41l-170 275h-123z" />
<glyph unicode="&#xdc;" horiz-adv-x="1222" d="M14 1442h156v-930q0 -262 113 -399q111 -137 331 -138q209 0 330 146q117 143 117 393v928h156v24h-490v-24h221v-936q0 -211 -86 -328q-84 -117 -250 -117q-160 0 -245.5 117t-85.5 324v940h221v24h-488v-24zM424 1677q0 -29 22.5 -51t51.5 -22q30 -1 53 22t22 51 q0 29 -22.5 51.5t-52.5 22.5q-29 0 -51.5 -22.5t-22.5 -51.5zM713 1677q0 -29 22.5 -51t50.5 -22q31 -1 54 22t22 51q0 29 -22.5 51.5t-53.5 22.5q-29 0 -51 -22.5t-22 -51.5z" />
<glyph unicode="&#xdd;" horiz-adv-x="1120" d="M2 1434h121l383 -822v-577h-236v-35h582v35h-236v577l381 822h119v32h-436v-32h194l-313 -711l-315 711h215v32h-459v-32zM530 1544h43l187 275h-156z" />
<glyph unicode="&#xde;" horiz-adv-x="1028" d="M31 1421h207v-1376h-205v-45h563v45h-248v317h244q197 0 299 109q100 110 100 313q0 199 -104.5 307.5t-298.5 108.5h-240v221h246v45h-563v-45zM348 451v663h223q150 0 223.5 -84t73.5 -244q0 -170 -73 -251q-72 -84 -224 -84h-223z" />
<glyph unicode="&#xdf;" horiz-adv-x="905" d="M31 0h336v35h-97v1005q0 207 64 285q63 80 158 80q84 0 143 -66q57 -63 57 -204q0 -137 -61 -213q-31 -37 -72 -73t-94 -36v-29q68 -4 115 -44t82 -81q70 -82 69 -249q0 -35 -3 -77t-10 -83t-17.5 -77t-24.5 -58q-29 -45 -70 -62.5t-98 -17.5h-31l-2 -35h45 q158 0 240 112.5t82 282.5t-72 279q-68 106 -231 125q131 14 198 102q66 88 66 225q0 174 -78 271q-76 94 -233 94q-154 0 -242 -107q-90 -109 -90 -342v-1007h-129v-35z" />
<glyph unicode="&#xe0;" horiz-adv-x="901" d="M31 303q0 -152 69 -242q72 -90 203 -90q121 0 192.5 57.5t114.5 190.5l-2 -219h244v35h-143v743q0 172 -78 266q-78 92 -234 93q-78 0 -148.5 -22.5t-111.5 -68t-53 -105.5t-16 -138h41q2 31 3 55.5t4 47t12 42t30 41.5q25 25 55.5 38t62 18.5t62.5 5.5h57q106 0 156 -74 q47 -72 47 -234v-86h-190q-197 0 -287 -90q-90 -86 -90 -264zM141 299q0 135 72 203q74 70 240 69q59 0 82 -6q18 -2 63 -12v-72q0 -184 -70 -303q-68 -121 -204 -121q-90 0 -138 72q-45 70 -45 170zM217 1491l189 -274h43l-76 274h-156z" />
<glyph unicode="&#xe1;" horiz-adv-x="901" d="M31 303q0 -152 69 -242q72 -90 203 -90q121 0 192.5 57.5t114.5 190.5l-2 -219h244v35h-143v743q0 172 -78 266q-78 92 -234 93q-78 0 -148.5 -22.5t-111.5 -68t-53 -105.5t-16 -138h41q2 31 3 55.5t4 47t12 42t30 41.5q25 25 55.5 38t62 18.5t62.5 5.5h57q106 0 156 -74 q47 -72 47 -234v-86h-190q-197 0 -287 -90q-90 -86 -90 -264zM141 299q0 135 72 203q74 70 240 69q59 0 82 -6q18 -2 63 -12v-72q0 -184 -70 -303q-68 -121 -204 -121q-90 0 -138 72q-45 70 -45 170zM358 1217h43l187 274h-156z" />
<glyph unicode="&#xe2;" horiz-adv-x="901" d="M31 303q0 -152 69 -242q72 -90 203 -90q121 0 192.5 57.5t114.5 190.5l-2 -219h244v35h-143v743q0 172 -78 266q-78 92 -234 93q-78 0 -148.5 -22.5t-111.5 -68t-53 -105.5t-16 -138h41q2 31 3 55.5t4 47t12 42t30 41.5q25 25 55.5 38t62 18.5t62.5 5.5h57q106 0 156 -74 q47 -72 47 -234v-86h-190q-197 0 -287 -90q-90 -86 -90 -264zM141 299q0 135 72 203q74 70 240 69q59 0 82 -6q18 -2 63 -12v-72q0 -184 -70 -303q-68 -121 -204 -121q-90 0 -138 72q-45 70 -45 170zM172 1217h41l188 200l191 -200h41l-170 274h-123z" />
<glyph unicode="&#xe3;" horiz-adv-x="901" d="M31 303q0 -152 69 -242q72 -90 203 -90q121 0 192.5 57.5t114.5 190.5l-2 -219h244v35h-143v743q0 172 -78 266q-78 92 -234 93q-78 0 -148.5 -22.5t-111.5 -68t-53 -105.5t-16 -138h41q2 31 3 55.5t4 47t12 42t30 41.5q25 25 55.5 38t62 18.5t62.5 5.5h57q106 0 156 -74 q47 -72 47 -234v-86h-190q-197 0 -287 -90q-90 -86 -90 -264zM141 299q0 135 72 203q74 70 240 69q59 0 82 -6q18 -2 63 -12v-72q0 -184 -70 -303q-68 -121 -204 -121q-90 0 -138 72q-45 70 -45 170zM160 1262h45q4 43 22 61q23 23 56 23q37 0 114.5 -45.5t124.5 -45.5 t70.5 15.5t35 42t12.5 58.5t5 67h-45q-4 -41 -25 -62q-18 -23 -53 -22q-39 0 -116.5 45t-122.5 45q-47 0 -72 -15.5t-35 -41t-12 -58.5t-4 -67z" />
<glyph unicode="&#xe4;" horiz-adv-x="901" d="M41 303q0 -147 70 -242q72 -90 202 -90q121 0 193 57.5t115 190.5l-3 -219h244v35h-143v743q0 176 -78 266q-78 92 -233 93q-78 0 -148 -22.5t-113 -67.5q-41 -45 -53 -105.5t-16 -138.5h41q2 31 3 55.5t5 47t13.5 42t27.5 41.5q25 25 55.5 38t62 18.5t62.5 5.5h58 q106 0 155 -74q47 -72 47 -234v-86h-190q-193 0 -287 -90q-90 -86 -90 -264zM152 299q0 135 71 203q74 70 240 69q59 0 82 -6q18 -2 63 -12v-72q0 -184 -67 -303q-72 -121 -207 -121q-88 0 -135 72t-47 170zM201 1350q0 -29 22.5 -51.5t50.5 -22.5q31 -1 54 22t22 52 q0 29 -22.5 51t-53.5 22q-29 0 -51 -22.5t-22 -50.5zM492 1350q0 -29 22.5 -51.5t50.5 -22.5q28 -1 51 22t23 52t-23 51q-20 23 -51 22q-31 0 -51 -22q-23 -23 -22 -51z" />
<glyph unicode="&#xe5;" horiz-adv-x="901" d="M31 303q0 -152 69 -242q72 -90 203 -90q121 0 192.5 57.5t114.5 190.5l-2 -219h244v35h-143v743q0 172 -78 266q-78 92 -234 93q-78 0 -148.5 -22.5t-111.5 -68t-53 -105.5t-16 -138h41q2 31 3 55.5t4 47t12 42t30 41.5q25 25 55.5 38t62 18.5t62.5 5.5h57q106 0 156 -74 q47 -72 47 -234v-86h-190q-197 0 -287 -90q-90 -86 -90 -264zM141 299q0 135 72 203q74 70 240 69q59 0 82 -6q18 -2 63 -12v-72q0 -184 -70 -303q-68 -121 -204 -121q-90 0 -138 72q-45 70 -45 170zM246 1372q0 -63 45 -108t108 -45t108.5 45t45.5 108q0 59 -45 109 q-49 45 -109 45q-63 0 -108 -45t-45 -109zM297 1372q0 41 30.5 72t71.5 31q43 0 73 -30t30 -73h-2q0 -43 -29 -72q-29 -31 -72 -30q-41 0 -71.5 30.5t-30.5 71.5z" />
<glyph unicode="&#xe6;" horiz-adv-x="1703" d="M141 354l13 -14l53 53l311 -311l-51 -51l12 -13l139 138l-14 12l-47 -47l-190 188q-51 55 -64 99q-14 47 14 75q25 25 60 13q33 -8 78 -54l213 -211l-54 -53l13 -12l137 135l-12 14l-45 -45l-193 193q-51 49 -65 96q-12 45 16 72q23 23 59 14q35 -8 80 -53l213 -211 l-51 -51l12 -15l140 140l231 -232l-111 -110l19 -19l289 289l-19 18l-110 -110l-369 366l635 -100l-92 -92l18 -19l244 242l-19 21l-69 -70l-709 106l-63 654l55 55l-19 21l-231 -234l18 -18l97 94l84 -608l-346 348l110 110l-18 19l-289 -289l18 -18l111 110l522 -520 l-49 -49l-217 217q-20 20 -45 36.5t-50.5 25t-52 2t-51.5 -30.5q-31 -29 -30 -68q-4 -33 12 -63q-33 16 -60 16q-33 2 -69 -31q-23 -23 -29 -61q-2 -27 6 -57l-39 38zM879 1063l26 -49l117 80l2 -140l55 9l-41 133l136 -39l8 55l-140 2l80 117l-49 26l-47 -135l-86 113 l-41 -39l113 -86z" />
<glyph unicode="&#xe7;" horiz-adv-x="890" d="M109 553q0 -268 100 -424q88 -143 252 -156l-70 -112l21 -39q39 10 73.5 6t60 -18.5t40 -35t12.5 -40.5q0 -27 -21.5 -51.5t-56.5 -37t-80 -7t-92 39.5l-35 -28q35 -25 85.5 -37t90.5 -12q84 0 124 41t36 91t-53 91t-143 41l65 106q121 8 205 99q92 94 98 278h-100 q-6 -113 -66 -203q-55 -88 -159 -88q-131 0 -205 138q-72 139 -72 358q0 227 74 362q70 135 205 136q113 0 174 -88q57 -86 61 -246h35v391h-37v-170q-25 90 -84 145q-59 53 -164 54q-184 0 -278 -156q-96 -158 -96 -428z" />
<glyph unicode="&#xe8;" horiz-adv-x="884" d="M78 549q0 -276 100 -426q98 -152 299 -152q129 0 221 99q90 96 109 272h-45q-4 -59 -28.5 -110.5t-55.5 -92.5q-14 -20 -39 -35.5t-54.5 -25.5t-60 -15.5t-59.5 -5.5q-139 0 -209 131q-66 127 -70 347h652l-11 2q0 274 -90 438q-88 162 -272 162q-190 0 -289 -156 q-98 -158 -98 -432zM186 618q8 184 72 300q72 133 195 133q31 0 65.5 -7.5t66 -21.5t58.5 -35.5t45 -50.5q35 -57 59.5 -136.5t28.5 -181.5h-590zM303 1491l189 -274h43l-76 274h-156z" />
<glyph unicode="&#xe9;" horiz-adv-x="884" d="M78 549q0 -276 100 -426q98 -152 299 -152q129 0 221 99q90 96 109 272h-45q-4 -59 -28.5 -110.5t-55.5 -92.5q-14 -20 -39 -35.5t-54.5 -25.5t-60 -15.5t-59.5 -5.5q-139 0 -209 131q-66 127 -70 347h652l-11 2q0 274 -90 438q-88 162 -272 162q-190 0 -289 -156 q-98 -158 -98 -432zM186 618q8 184 72 300q72 133 195 133q31 0 65.5 -7.5t66 -21.5t58.5 -35.5t45 -50.5q35 -57 59.5 -136.5t28.5 -181.5h-590zM444 1217h43l187 274h-156z" />
<glyph unicode="&#xea;" horiz-adv-x="884" d="M78 549q0 -276 100 -426q98 -152 299 -152q129 0 221 99q90 96 109 272h-45q-4 -59 -28.5 -110.5t-55.5 -92.5q-14 -20 -39 -35.5t-54.5 -25.5t-60 -15.5t-59.5 -5.5q-139 0 -209 131q-66 127 -70 347h652l-11 2q0 274 -90 438q-88 162 -272 162q-190 0 -289 -156 q-98 -158 -98 -432zM186 618q8 184 72 300q72 133 195 133q31 0 65.5 -7.5t66 -21.5t58.5 -35.5t45 -50.5q35 -57 59.5 -136.5t28.5 -181.5h-590zM258 1217h41l188 200l191 -200h41l-170 274h-123z" />
<glyph unicode="&#xeb;" horiz-adv-x="884" d="M78 549q0 -276 100 -426q98 -152 299 -152q129 0 221 99q90 96 109 272h-45q-4 -59 -28.5 -110.5t-55.5 -92.5q-14 -20 -39 -35.5t-54.5 -25.5t-60 -15.5t-59.5 -5.5q-139 0 -209 131q-66 127 -70 347h652l-11 2q0 274 -90 438q-88 162 -272 162q-190 0 -289 -156 q-98 -158 -98 -432zM186 618q8 184 72 300q72 133 195 133q31 0 65.5 -7.5t66 -21.5t58.5 -35.5t45 -50.5q35 -57 59.5 -136.5t28.5 -181.5h-590zM231 1350q0 -29 22.5 -51.5t51.5 -22.5q30 -1 53 22t22 51.5t-22 51.5q-23 23 -53 22q-29 0 -51.5 -22.5t-22.5 -50.5z M521.5 1349.5q-1.5 -28.5 21 -51t51.5 -22.5q30 -1 53 22t23 52t-22.5 51t-53.5 22q-29 0 -51 -22q-20 -23 -21.5 -51.5z" />
<glyph unicode="&#xec;" horiz-adv-x="530" d="M31 0h450v35h-166v1073h-284v-37h174v-1036h-174v-35zM59 1491l189 -274h43l-76 274h-156z" />
<glyph unicode="&#xed;" horiz-adv-x="530" d="M31 0h450v35h-166v1073h-284v-37h174v-1036h-174v-35zM201 1217h43l186 274h-156z" />
<glyph unicode="&#xee;" horiz-adv-x="530" d="M14 1217h41l189 200l190 -200h41l-170 274h-123zM31 0h450v35h-166v1073h-284v-37h174v-1036h-174v-35z" />
<glyph unicode="&#xef;" horiz-adv-x="530" d="M31 0h450v35h-166v1073h-284v-37h174v-1036h-174v-35zM33 1350q0 -29 22.5 -51.5t50.5 -22.5q31 -1 54 22t21.5 51.5t-21.5 51.5q-23 23 -54 22q-29 0 -51 -22.5t-22 -50.5zM324 1350q0 -29 20 -52q23 -23 51 -22q31 -1 54 22t22 52q0 29 -22.5 51t-53.5 22 q-29 0 -51 -22q-20 -23 -20 -51z" />
<glyph unicode="&#xf0;" horiz-adv-x="921" d="M78 516q0 -248 106 -397q104 -150 287 -150q180 0 285 158q100 160 100 418q0 385 -182 639q-53 76 -154 157l185 136l-48 51l-196 -146q-37 14 -70 24.5t-67.5 18t-73.5 14.5t-88 15v-39q133 -25 231 -84l-190 -141l41 -51l211 155q39 -29 67 -55q152 -139 191 -309 q-47 88 -117 114q-74 29 -141 29q-176 0 -276.5 -155.5t-100.5 -401.5zM188 516q0 207 72 340q70 131 207 131t209 -129q69 -127 69 -342q0 -209 -71 -336q-70 -125 -207 -125q-131 0 -205 129q-74 125 -74 332z" />
<glyph unicode="&#xf1;" d="M23 0h444v35h-160v622q0 170 60 283q57 111 161 111q102 0 146 -86q41 -86 41 -246v-684h-174v-35h444v35h-160v723q0 184 -63 280q-61 98 -191 99q-86 0 -157 -45q-74 -49 -107 -158v174h-284v-35h174v-1038h-174v-35zM324 1272h22q4 37 26.5 61.5t61.5 24.5 q27 0 56.5 -14.5t61.5 -32t62.5 -31.5t59.5 -14q41 0 62.5 14t31.5 36.5t12 51t4 59.5h-22q-6 -37 -26.5 -61.5t-61.5 -24.5q-27 0 -57.5 14.5t-62.5 32t-62.5 32t-57.5 14.5q-43 0 -64.5 -13.5t-31.5 -37t-11 -52t-3 -59.5z" />
<glyph unicode="&#xf2;" horiz-adv-x="921" d="M76 553q0 -262 102 -424q102 -158 287 -158q186 0 289 160q102 158 102 422t-102 426q-102 158 -289 158q-186 0 -287 -160q-102 -158 -102 -424zM186 553q0 221 74 360q74 137 205 138q133 0 207 -138q73 -139 73 -360t-73.5 -358.5t-206.5 -137.5q-131 0 -205 137.5 t-74 358.5zM297 1491l188 -274h43l-75 274h-156z" />
<glyph unicode="&#xf3;" horiz-adv-x="921" d="M76 553q0 -262 102 -424q102 -158 287 -158q186 0 289 160q102 158 102 422t-102 426q-102 158 -289 158q-186 0 -287 -160q-102 -158 -102 -424zM186 553q0 221 74 360q74 137 205 138q133 0 207 -138q73 -139 73 -360t-73.5 -358.5t-206.5 -137.5q-131 0 -205 137.5 t-74 358.5zM438 1217h43l187 274h-156z" />
<glyph unicode="&#xf4;" horiz-adv-x="921" d="M76 553q0 -262 102 -424q102 -158 287 -158q186 0 289 160q102 158 102 422t-102 426q-102 158 -289 158q-186 0 -287 -160q-102 -158 -102 -424zM186 553q0 221 74 360q74 137 205 138q133 0 207 -138q73 -139 73 -360t-73.5 -358.5t-206.5 -137.5q-131 0 -205 137.5 t-74 358.5zM252 1217h41l188 200l191 -200h41l-170 274h-123z" />
<glyph unicode="&#xf5;" horiz-adv-x="921" d="M76 553q0 -262 102 -424q102 -158 287 -158q186 0 289 160q102 158 102 422t-102 426q-102 158 -289 158q-186 0 -287 -160q-102 -158 -102 -424zM186 553q0 221 74 360q74 137 205 138q133 0 207 -138q73 -139 73 -360t-73.5 -358.5t-206.5 -137.5q-131 0 -205 137.5 t-74 358.5zM240 1262h45q4 43 22 61q23 23 55 23q37 0 115 -45.5t125 -45.5t70.5 15.5t35 42t12.5 58.5t5 67h-45q-4 -41 -25 -62q-18 -23 -53 -22q-39 0 -116.5 45t-123.5 45q-47 0 -71.5 -15.5t-34.5 -41t-12 -58.5t-4 -67z" />
<glyph unicode="&#xf6;" horiz-adv-x="921" d="M76 553q0 -262 102 -424q102 -158 287 -158q186 0 289 160q102 158 102 422t-102 426q-102 158 -289 158q-186 0 -287 -160q-102 -158 -102 -424zM186 553q0 221 74 360q74 137 205 138q133 0 207 -138q73 -139 73 -360t-73.5 -358.5t-206.5 -137.5q-131 0 -205 137.5 t-74 358.5zM270 1350q0 -29 22.5 -51.5t51.5 -22.5q30 -1 53 22t22 51.5t-22 51.5q-23 23 -53 22q-29 0 -51.5 -22.5t-22.5 -50.5zM561 1350q0 -29 21 -52q23 -23 51 -22q30 -1 53 22t23 52t-22.5 51t-53.5 22q-29 0 -51 -22q-20 -23 -21 -51z" />
<glyph unicode="&#xf7;" horiz-adv-x="1093" d="M94 461h924v110h-924v-110zM500 -2h147v147h-147v-147zM500 887h147v147h-147v-147z" />
<glyph unicode="&#xf8;" horiz-adv-x="1703" d="M20 610q0 -172 66 -324.5t179.5 -266t266 -179t324.5 -65.5t324.5 65.5t266.5 179t179.5 266t65.5 324.5t-65.5 324.5t-179.5 266.5t-266.5 179.5t-324.5 65.5t-324.5 -65.5t-266 -179.5t-179.5 -266.5t-66 -324.5zM340 424l66 65l38 -40q-16 31 -12 59q4 12 8 23.5 t15 21.5q27 23 51 22q29 0 53 -18q-16 31 -14 57q0 29 22 52q29 29 70 22q37 -10 80 -49l168 -170l43 43l-406 406l-86 -87l-10 11l219 219l10 -10l-86 -86l277 -277l-68 483l-76 -73l-10 10l174 174l11 -10l-43 -43l49 -506l549 -84l53 53l10 -10l-182 -182l-10 10l73 74 l-506 80l293 -293l86 86l11 -11l-220 -219l-10 11l86 86l-182 182l-109 -107l-4 4l39 41l-166 166q-35 33 -61 41q-31 8 -51 -12q-25 -25 -12.5 -59.5t51.5 -73.5l149 -152l35 35l6 -6l-100 -100l-6 6l40 41l-165 166q-35 33 -62 41q-31 8 -49 -11q-25 -25 -12 -61 q8 -35 51 -78l147 -147l37 36l6 -6l-102 -100l-6 4l39 39l-244 246l-39 -41zM907 969l107 37l-90 67l26 25l68 -88l37 104l30 -16l-61 -92l109 -2l-5 -35l-106 30l31 -104l-35 -6l-2 110l-92 -63z" />
<glyph unicode="&#xf9;" d="M31 1073h151v-713q0 -190 62 -290q57 -98 192 -99q96 0 166 58q72 55 103 166v-195h272v35h-166v1073h-272v-35h163v-627q0 -166 -63 -278q-66 -111 -162 -111q-106 0 -145 80q-39 78 -39 242v729h-262v-35zM324 1491l188 -274h43l-76 274h-155z" />
<glyph unicode="&#xfa;" d="M31 1073h151v-713q0 -190 62 -290q57 -98 192 -99q96 0 166 58q72 55 103 166v-195h272v35h-166v1073h-272v-35h163v-627q0 -166 -63 -278q-66 -111 -162 -111q-106 0 -145 80q-39 78 -39 242v729h-262v-35zM463 1217h43l186 274h-155z" />
<glyph unicode="&#xfb;" d="M31 1073h151v-713q0 -190 62 -290q57 -98 192 -99q96 0 166 58q72 55 103 166v-195h272v35h-166v1073h-272v-35h163v-627q0 -166 -63 -278q-66 -111 -162 -111q-106 0 -145 80q-39 78 -39 242v729h-262v-35zM276 1217h41l189 200l190 -200h41l-170 274h-123z" />
<glyph unicode="&#xfc;" d="M31 1073h151v-713q0 -190 62 -290q57 -98 192 -99q96 0 166 58q72 55 103 166v-195h272v35h-166v1073h-272v-35h163v-627q0 -166 -63 -278q-66 -111 -162 -111q-106 0 -145 80q-39 78 -39 242v729h-262v-35zM297 1350q0 -29 22.5 -51.5t51.5 -22.5q30 -1 53 22t21.5 51.5 t-21.5 51.5q-23 23 -53 22q-29 0 -51.5 -22.5t-22.5 -50.5zM587 1349.5q-1 -28.5 21.5 -51t50.5 -22.5q31 -1 54 22t22 52q0 29 -22.5 51t-53.5 22q-29 0 -51 -22q-20 -23 -21 -51.5z" />
<glyph unicode="&#xfd;" horiz-adv-x="905" d="M23 1073h96l307 -1061l-41 -153q-6 -18 -13 -43t-15.5 -49.5t-15.5 -44t-13 -27.5q-27 -33 -80 -33l-74 12v-30l78 -23q45 0 79 18.5t56 47.5q47 57 78 163l350 1223h72v35h-336v-35h154l-238 -909l-238 909h154v35h-360v-35zM428 1217h43l186 274h-155z" />
<glyph unicode="&#xfe;" horiz-adv-x="985" d="M8 1421h174v-1716h-159v-45h440v45h-168v488q41 -119 117 -170q80 -51 166 -52q172 0 264 160q90 158 90 422t-90 426q-90 158 -258 158q-96 0 -172 -56q-74 -55 -117 -174v559h-287v-45zM283 518v25q0 246 69.5 377t194.5 131q133 0 203 -138q71 -139 71 -360 q0 -219 -71 -358q-70 -137 -201 -138q-125 0 -197 127q-70 125 -69 334z" />
<glyph unicode="&#xff;" horiz-adv-x="905" d="M23 1073h96l307 -1061l-41 -153q-6 -18 -13 -43t-15.5 -49.5t-15.5 -44t-13 -27.5q-27 -33 -80 -33l-74 12v-30l78 -13q88 0 135 56q47 57 78 163l350 1223h72v35h-336v-35h154l-238 -909l-238 909h154v35h-360v-35zM260 1350q0 -29 22.5 -51.5t51.5 -22.5q30 -1 53 22 t23 52t-22.5 51t-53.5 22q-29 0 -51.5 -22.5t-22.5 -50.5zM549 1350q0 -29 22.5 -51.5t51.5 -22.5q30 -1 53 22t22 52q0 29 -22.5 51t-52.5 22q-29 0 -51.5 -22.5t-22.5 -50.5z" />
<glyph unicode="&#x178;" horiz-adv-x="1120" d="M2 1432h121l383 -820v-577h-236v-35h582v35h-236v577l381 820h119v34h-436v-34h194l-313 -709l-315 709h215v34h-459v-34zM365 1677q0 -29 22.5 -51t50.5 -22q31 -1 54 22q20 23 20 51q0 29 -20 52q-23 23 -54 22q-29 0 -51 -22.5t-22 -51.5zM654.5 1677.5 q-1.5 -28.5 21 -51t51.5 -22.5q30 -1 53 22t23 51q0 29 -22.5 51.5t-53.5 22.5q-29 0 -51 -22q-20 -23 -21.5 -51.5z" />
<glyph unicode="&#x2c6;" horiz-adv-x="432" d="M-6 1217h41l188 262l191 -262h41l-170 274h-123z" />
<glyph unicode="&#x2dc;" horiz-adv-x="446" d="M-10 1262h45q4 43 22 61q23 23 56 23q37 0 114.5 -45.5t124.5 -45.5t70.5 15.5t35 42t12.5 58.5t5 67h-45q-4 -41 -24 -62q-18 -23 -54 -22q-39 0 -116.5 45t-122.5 45q-47 0 -72 -15.5t-35 -41t-12 -58.5t-4 -67z" />
<glyph unicode="&#x2000;" horiz-adv-x="920" />
<glyph unicode="&#x2001;" horiz-adv-x="1841" />
<glyph unicode="&#x2002;" horiz-adv-x="920" />
<glyph unicode="&#x2003;" horiz-adv-x="1841" />
<glyph unicode="&#x2004;" horiz-adv-x="613" />
<glyph unicode="&#x2005;" horiz-adv-x="460" />
<glyph unicode="&#x2006;" horiz-adv-x="306" />
<glyph unicode="&#x2007;" horiz-adv-x="306" />
<glyph unicode="&#x2008;" horiz-adv-x="230" />
<glyph unicode="&#x2009;" horiz-adv-x="368" />
<glyph unicode="&#x200a;" horiz-adv-x="102" />
<glyph unicode="&#x2010;" horiz-adv-x="555" d="M29 647h428v94h-428v-94z" />
<glyph unicode="&#x2011;" horiz-adv-x="555" d="M29 647h428v94h-428v-94z" />
<glyph unicode="&#x2012;" horiz-adv-x="555" d="M29 647h428v94h-428v-94z" />
<glyph unicode="&#x2013;" horiz-adv-x="1024" d="M0 518h979v86h-979v-86z" />
<glyph unicode="&#x2014;" horiz-adv-x="2048" d="M0 518h2003v86h-2003v-86z" />
<glyph unicode="&#x2018;" horiz-adv-x="505" d="M197 1057h147v147h-61l28 262h-24l-90 -262v-147z" />
<glyph unicode="&#x2019;" horiz-adv-x="505" d="M225 1319h62l-29 -262h25l90 262v147h-148v-147z" />
<glyph unicode="&#x201a;" horiz-adv-x="505" d="M227 0h62l-29 -262h25l90 262v147h-148v-147z" />
<glyph unicode="&#x201c;" horiz-adv-x="808" d="M170 1057h147v147h-61l29 262h-25l-90 -262v-147zM526 1057h148v147h-62l29 262h-25l-90 -262v-147z" />
<glyph unicode="&#x201d;" horiz-adv-x="808" d="M199 1319h61l-29 -262h25l90 262v147h-147v-147zM555 1319h61l-28 -262h24l90 262v147h-147v-147z" />
<glyph unicode="&#x201e;" horiz-adv-x="808" d="M199 0h61l-29 -262h25l90 262v147h-147v-147zM557 0h61l-28 -262h24l91 262v147h-148v-147z" />
<glyph unicode="&#x2022;" horiz-adv-x="714" d="M207 743q0 -74 51 -125q49 -49 123 -49q70 0 123 49q49 51 49 125q0 72 -49 125q-53 49 -123 50q-74 0 -123 -50q-51 -51 -51 -125z" />
<glyph unicode="&#x2026;" horiz-adv-x="1822" d="M186 0h148v147h-148v-147zM868 0h148v147h-148v-147zM1548 0h148v147h-148v-147z" />
<glyph unicode="&#x202f;" horiz-adv-x="368" />
<glyph unicode="&#x2039;" horiz-adv-x="522" d="M143 561l144 -448h24l-71 448l73 449h-24z" />
<glyph unicode="&#x203a;" horiz-adv-x="522" d="M215 1010l76 -449l-74 -448h25l145 448l-147 449h-25z" />
<glyph unicode="&#x205f;" horiz-adv-x="460" />
<glyph unicode="&#x2122;" horiz-adv-x="1820" d="M51 1163h25v236h278v-881h-159v-22h391v22h-160v881h281v-236h24v299h-680v-299zM762 496h332v22h-121v897l272 -919h53l275 919v-897h-121v-22h332v22h-137v922h135v22h-269l-237 -835l-244 835h-270v-22h139v-922h-139v-22z" />
<glyph unicode="&#x25fc;" horiz-adv-x="1105" d="M0 0v1106h1106v-1106h-1106z" />
</font>
</defs>
</svg>
